<svg width="700pt" height="700pt" viewBox="0 0 700 700" fill="#fff" xmlns="http://www.w3.org/2000/svg"><path d="M523.91 402.48V551.8c0 4.531-3.672 8.203-8.203 8.203s-8.203-3.672-8.203-8.203V402.48c0-31.664-25.762-57.422-57.422-57.422h-251.56c-31.664 0-57.422 25.762-57.422 57.422V551.8c0 4.531-3.672 8.203-8.203 8.203s-8.203-3.672-8.203-8.203l-.004-149.32c0-40.707 33.117-73.832 73.832-73.832h251.56c40.71 0 73.828 33.117 73.828 73.832zm51.41-293.65v115.94c0 11.762-9.57 21.332-21.332 21.332l-134.32-.004c-14.488 38.605-51.766 66.152-95.367 66.152-56.145 0-101.82-45.68-101.82-101.82s45.68-101.82 101.82-101.82c17.617 0 34.203 4.496 48.668 12.402v-12.18c0-11.762 9.57-21.332 21.332-21.332h27.887l.004-41.008c0-25.629 20.852-46.484 46.484-46.484h10.938c25.633 0 46.484 20.855 46.484 46.484v41.016h27.887c11.762 0 21.332 9.57 21.332 21.332zM438.6 87.498h71.094V46.482c0-16.586-13.492-30.078-30.078-30.078h-10.938c-16.586 0-30.078 13.492-30.078 30.078zm-28.887 122.93c0-47.102-38.32-85.418-85.418-85.418-47.102 0-85.418 38.32-85.418 85.418 0 47.102 38.32 85.418 85.418 85.418 47.105 0 85.418-38.32 85.418-85.418zm149.2-101.59c0-2.664-2.25-4.922-4.922-4.922l-159.69-.004c-2.664 0-4.922 2.25-4.922 4.922v23.348c22.438 18.691 36.746 46.832 36.746 78.25a102 102 0 01-1.836 19.266h129.7c2.664 0 4.922-2.25 4.922-4.922zm-84.766 23.789c-9.043 0-16.406 7.36-16.406 16.406 0 6.059 3.309 11.344 8.203 14.184v29.562c0 4.531 3.672 8.203 8.203 8.203s8.203-3.672 8.203-8.203v-29.562c4.895-2.844 8.203-8.133 8.203-14.184 0-9.05-7.355-16.406-16.406-16.406zm-259.22 301.6a8.202 8.202 0 00-8.203 8.203v109.38c0 4.531 3.672 8.203 8.203 8.203s8.203-3.672 8.203-8.203V442.43a8.202 8.202 0 00-8.203-8.203zm218.75 0a8.202 8.202 0 00-8.203 8.203v109.38c0 4.531 3.672 8.203 8.203 8.203s8.203-3.672 8.203-8.203V442.43c-.004-4.531-3.672-8.203-8.203-8.203z"/></svg>